<svg xmlns="http://www.w3.org/2000/svg" viewBox="0 0 400 400" width="400" height="400" role="img" aria-label="Съзвездие Близнаци"><defs><radialGradient id="sky-gemini" cx="50%" cy="38%" r="75%"><stop offset="0%" stop-color="#141026"/><stop offset="100%" stop-color="#0d0b18"/></radialGradient><radialGradient id="glow-gemini" cx="50%" cy="50%" r="50%"><stop offset="0%" stop-color="#f4c95d" stop-opacity="0.85"/><stop offset="35%" stop-color="#f4c95d" stop-opacity="0.35"/><stop offset="100%" stop-color="#f4c95d" stop-opacity="0"/></radialGradient><radialGradient id="glow2-gemini" cx="50%" cy="50%" r="50%"><stop offset="0%" stop-color="#ffffff" stop-opacity="0.7"/><stop offset="100%" stop-color="#ffffff" stop-opacity="0"/></radialGradient></defs><rect width="400" height="400" fill="url(#sky-gemini)"/><g><circle cx="122.8" cy="218.6" r="0.40" fill="#cfd3ff" opacity="0.21"/><circle cx="172.8" cy="231.0" r="0.89" fill="#cfd3ff" opacity="0.29"/><circle cx="177.6" cy="88.9" r="0.75" fill="#cfd3ff" opacity="0.46"/><circle cx="314.9" cy="71.8" r="0.46" fill="#cfd3ff" opacity="0.31"/><circle cx="251.6" cy="136.1" r="1.01" fill="#cfd3ff" opacity="0.40"/><circle cx="267.0" cy="93.2" r="0.55" fill="#cfd3ff" opacity="0.11"/><circle cx="101.0" cy="190.4" r="1.04" fill="#cfd3ff" opacity="0.13"/><circle cx="166.8" cy="250.3" r="0.55" fill="#cfd3ff" opacity="0.38"/><circle cx="197.8" cy="100.7" r="0.89" fill="#cfd3ff" opacity="0.10"/><circle cx="297.4" cy="304.8" r="0.48" fill="#cfd3ff" opacity="0.27"/><circle cx="74.2" cy="377.7" r="0.79" fill="#cfd3ff" opacity="0.12"/><circle cx="102.7" cy="335.2" r="0.74" fill="#cfd3ff" opacity="0.42"/><circle cx="265.0" cy="389.3" r="0.85" fill="#cfd3ff" opacity="0.48"/><circle cx="351.9" cy="243.7" r="0.94" fill="#cfd3ff" opacity="0.30"/><circle cx="328.3" cy="218.6" r="1.07" fill="#cfd3ff" opacity="0.40"/><circle cx="190.2" cy="106.6" r="0.59" fill="#cfd3ff" opacity="0.36"/><circle cx="303.1" cy="208.3" r="0.87" fill="#cfd3ff" opacity="0.21"/><circle cx="36.1" cy="116.9" r="0.60" fill="#cfd3ff" opacity="0.23"/><circle cx="215.6" cy="59.7" r="0.57" fill="#cfd3ff" opacity="0.38"/><circle cx="280.1" cy="30.9" r="0.71" fill="#cfd3ff" opacity="0.32"/><circle cx="167.3" cy="86.3" r="0.72" fill="#cfd3ff" opacity="0.46"/><circle cx="232.6" cy="275.9" r="1.04" fill="#cfd3ff" opacity="0.41"/><circle cx="153.6" cy="8.3" r="0.66" fill="#cfd3ff" opacity="0.40"/><circle cx="337.1" cy="375.9" r="0.71" fill="#cfd3ff" opacity="0.40"/><circle cx="217.9" cy="240.1" r="0.57" fill="#cfd3ff" opacity="0.19"/><circle cx="175.1" cy="17.3" r="0.65" fill="#cfd3ff" opacity="0.37"/><circle cx="162.9" cy="70.0" r="0.75" fill="#cfd3ff" opacity="0.15"/><circle cx="247.4" cy="16.5" r="0.70" fill="#cfd3ff" opacity="0.33"/><circle cx="16.5" cy="255.4" r="0.50" fill="#cfd3ff" opacity="0.28"/><circle cx="25.5" cy="153.1" r="0.56" fill="#cfd3ff" opacity="0.23"/><circle cx="301.4" cy="153.1" r="0.96" fill="#cfd3ff" opacity="0.43"/><circle cx="103.9" cy="37.8" r="0.41" fill="#cfd3ff" opacity="0.32"/><circle cx="394.0" cy="141.8" r="0.89" fill="#cfd3ff" opacity="0.41"/><circle cx="258.9" cy="298.6" r="1.11" fill="#cfd3ff" opacity="0.18"/><circle cx="13.9" cy="65.1" r="0.49" fill="#cfd3ff" opacity="0.37"/><circle cx="224.8" cy="90.6" r="0.92" fill="#cfd3ff" opacity="0.41"/><circle cx="71.1" cy="241.6" r="0.96" fill="#cfd3ff" opacity="0.15"/><circle cx="323.9" cy="380.3" r="0.48" fill="#cfd3ff" opacity="0.11"/><circle cx="127.0" cy="268.8" r="1.12" fill="#cfd3ff" opacity="0.26"/><circle cx="283.4" cy="35.5" r="0.92" fill="#cfd3ff" opacity="0.35"/><circle cx="45.5" cy="305.7" r="1.04" fill="#cfd3ff" opacity="0.34"/><circle cx="53.0" cy="387.7" r="0.99" fill="#cfd3ff" opacity="0.24"/><circle cx="172.2" cy="149.8" r="0.78" fill="#cfd3ff" opacity="0.24"/><circle cx="335.6" cy="325.1" r="0.48" fill="#cfd3ff" opacity="0.48"/><circle cx="252.6" cy="327.5" r="0.93" fill="#cfd3ff" opacity="0.27"/><circle cx="290.7" cy="380.6" r="0.60" fill="#cfd3ff" opacity="0.42"/></g><g><line x1="136.0" y1="104.0" x2="128.0" y2="176.0" stroke="#6b6f9e" stroke-width="1.1" stroke-opacity="0.55" stroke-linecap="round"/><line x1="128.0" y1="176.0" x2="120.0" y2="248.0" stroke="#6b6f9e" stroke-width="1.1" stroke-opacity="0.55" stroke-linecap="round"/><line x1="120.0" y1="248.0" x2="120.0" y2="312.0" stroke="#6b6f9e" stroke-width="1.1" stroke-opacity="0.55" stroke-linecap="round"/><line x1="208.0" y1="120.0" x2="200.0" y2="192.0" stroke="#6b6f9e" stroke-width="1.1" stroke-opacity="0.55" stroke-linecap="round"/><line x1="200.0" y1="192.0" x2="192.0" y2="264.0" stroke="#6b6f9e" stroke-width="1.1" stroke-opacity="0.55" stroke-linecap="round"/><line x1="192.0" y1="264.0" x2="192.0" y2="320.0" stroke="#6b6f9e" stroke-width="1.1" stroke-opacity="0.55" stroke-linecap="round"/><line x1="128.0" y1="176.0" x2="200.0" y2="192.0" stroke="#6b6f9e" stroke-width="1.1" stroke-opacity="0.55" stroke-linecap="round"/></g><circle cx="136.0" cy="104.0" r="14.5" fill="url(#glow2-gemini)"><animate attributeName="opacity" values="0.4;0.85;0.4" dur="3.57s" repeatCount="indefinite" begin="1.06s"/></circle><circle cx="136.0" cy="104.0" r="5.6" fill="#ffffff"><animate attributeName="opacity" values="0.6;1;0.6" dur="3.57s" repeatCount="indefinite" begin="1.06s"/></circle><circle cx="208.0" cy="120.0" r="29.3" fill="url(#glow-gemini)"><animate attributeName="opacity" values="0.55;1;0.55" dur="3.38s" repeatCount="indefinite" begin="1.61s"/><animate attributeName="r" values="26.0;33.9;26.0" dur="3.38s" repeatCount="indefinite" begin="1.61s"/></circle><g stroke="#f4c95d" stroke-width="1.1" stroke-linecap="round" opacity="0.9"><line x1="184.6" y1="120.0" x2="231.4" y2="120.0"/><line x1="208.0" y1="96.6" x2="208.0" y2="143.4"></line><animateTransform attributeName="transform" type="rotate" from="0 208.0 120.0" to="90 208.0 120.0" dur="7.4s" repeatCount="indefinite"/></g><circle cx="208.0" cy="120.0" r="11.1" fill="#f4c95d" opacity="0.4"/><circle cx="208.0" cy="120.0" r="6.5" fill="#ffffff"><animate attributeName="opacity" values="0.85;1;0.85" dur="3.38s" repeatCount="indefinite" begin="1.61s"/></circle><circle cx="128.0" cy="176.0" r="8.9" fill="url(#glow2-gemini)"><animate attributeName="opacity" values="0.4;0.85;0.4" dur="3.08s" repeatCount="indefinite" begin="1.87s"/></circle><circle cx="128.0" cy="176.0" r="3.4" fill="#ffffff"><animate attributeName="opacity" values="0.6;1;0.6" dur="3.08s" repeatCount="indefinite" begin="1.87s"/></circle><circle cx="200.0" cy="192.0" r="9.7" fill="url(#glow2-gemini)"><animate attributeName="opacity" values="0.4;0.85;0.4" dur="4.1s" repeatCount="indefinite" begin="0.19s"/></circle><circle cx="200.0" cy="192.0" r="3.7" fill="#ffffff"><animate attributeName="opacity" values="0.6;1;0.6" dur="4.1s" repeatCount="indefinite" begin="0.19s"/></circle><circle cx="120.0" cy="248.0" r="8.9" fill="url(#glow2-gemini)"><animate attributeName="opacity" values="0.4;0.85;0.4" dur="4.19s" repeatCount="indefinite" begin="0.54s"/></circle><circle cx="120.0" cy="248.0" r="3.4" fill="#ffffff"><animate attributeName="opacity" values="0.6;1;0.6" dur="4.19s" repeatCount="indefinite" begin="0.54s"/></circle><circle cx="192.0" cy="264.0" r="8.9" fill="url(#glow2-gemini)"><animate attributeName="opacity" values="0.4;0.85;0.4" dur="3.44s" repeatCount="indefinite" begin="1.34s"/></circle><circle cx="192.0" cy="264.0" r="3.4" fill="#ffffff"><animate attributeName="opacity" values="0.6;1;0.6" dur="3.44s" repeatCount="indefinite" begin="1.34s"/></circle><circle cx="120.0" cy="312.0" r="7.7" fill="url(#glow2-gemini)"><animate attributeName="opacity" values="0.4;0.85;0.4" dur="3.28s" repeatCount="indefinite" begin="0.06s"/></circle><circle cx="120.0" cy="312.0" r="2.9" fill="#ffffff"><animate attributeName="opacity" values="0.6;1;0.6" dur="3.28s" repeatCount="indefinite" begin="0.06s"/></circle><circle cx="192.0" cy="320.0" r="7.7" fill="url(#glow2-gemini)"><animate attributeName="opacity" values="0.4;0.85;0.4" dur="4.13s" repeatCount="indefinite" begin="0.4s"/></circle><circle cx="192.0" cy="320.0" r="2.9" fill="#ffffff"><animate attributeName="opacity" values="0.6;1;0.6" dur="4.13s" repeatCount="indefinite" begin="0.4s"/></circle><text x="208.0" y="165.3" text-anchor="middle" font-family="Georgia, serif" font-size="13" fill="#f4c95d" opacity="0.94" letter-spacing="0.5"><tspan x="208.0" dy="0">Полукс</tspan></text></svg>