<svg xmlns="http://www.w3.org/2000/svg" viewBox="0 0 400 400" width="400" height="400" role="img" aria-label="Съзвездие Риби"><defs><radialGradient id="sky-pisces" cx="50%" cy="38%" r="75%"><stop offset="0%" stop-color="#141026"/><stop offset="100%" stop-color="#0d0b18"/></radialGradient><radialGradient id="glow-pisces" cx="50%" cy="50%" r="50%"><stop offset="0%" stop-color="#f4c95d" stop-opacity="0.85"/><stop offset="35%" stop-color="#f4c95d" stop-opacity="0.35"/><stop offset="100%" stop-color="#f4c95d" stop-opacity="0"/></radialGradient><radialGradient id="glow2-pisces" cx="50%" cy="50%" r="50%"><stop offset="0%" stop-color="#ffffff" stop-opacity="0.7"/><stop offset="100%" stop-color="#ffffff" stop-opacity="0"/></radialGradient></defs><rect width="400" height="400" fill="url(#sky-pisces)"/><g><circle cx="128.0" cy="379.1" r="0.84" fill="#cfd3ff" opacity="0.40"/><circle cx="282.5" cy="160.5" r="0.46" fill="#cfd3ff" opacity="0.16"/><circle cx="99.3" cy="329.8" r="0.69" fill="#cfd3ff" opacity="0.46"/><circle cx="134.7" cy="299.2" r="0.50" fill="#cfd3ff" opacity="0.50"/><circle cx="287.0" cy="200.3" r="1.13" fill="#cfd3ff" opacity="0.12"/><circle cx="175.6" cy="331.4" r="0.66" fill="#cfd3ff" opacity="0.41"/><circle cx="376.5" cy="159.9" r="0.98" fill="#cfd3ff" opacity="0.11"/><circle cx="112.1" cy="391.1" r="0.77" fill="#cfd3ff" opacity="0.24"/><circle cx="371.2" cy="173.6" r="0.91" fill="#cfd3ff" opacity="0.36"/><circle cx="39.2" cy="246.0" r="1.00" fill="#cfd3ff" opacity="0.39"/><circle cx="37.8" cy="65.8" r="0.93" fill="#cfd3ff" opacity="0.35"/><circle cx="293.0" cy="128.9" r="0.48" fill="#cfd3ff" opacity="0.10"/><circle cx="125.6" cy="145.6" r="0.60" fill="#cfd3ff" opacity="0.15"/><circle cx="78.7" cy="180.2" r="0.82" fill="#cfd3ff" opacity="0.26"/><circle cx="16.2" cy="143.3" r="0.47" fill="#cfd3ff" opacity="0.34"/><circle cx="131.9" cy="155.5" r="0.62" fill="#cfd3ff" opacity="0.26"/><circle cx="38.9" cy="355.6" r="1.08" fill="#cfd3ff" opacity="0.49"/><circle cx="227.9" cy="71.8" r="0.69" fill="#cfd3ff" opacity="0.16"/><circle cx="122.8" cy="197.3" r="0.45" fill="#cfd3ff" opacity="0.27"/><circle cx="169.4" cy="193.9" r="0.46" fill="#cfd3ff" opacity="0.20"/><circle cx="101.7" cy="248.5" r="0.85" fill="#cfd3ff" opacity="0.18"/><circle cx="47.5" cy="124.2" r="1.11" fill="#cfd3ff" opacity="0.23"/><circle cx="246.6" cy="318.0" r="0.65" fill="#cfd3ff" opacity="0.23"/><circle cx="322.4" cy="339.5" r="1.13" fill="#cfd3ff" opacity="0.15"/><circle cx="130.4" cy="373.5" r="0.55" fill="#cfd3ff" opacity="0.23"/><circle cx="380.3" cy="381.9" r="0.62" fill="#cfd3ff" opacity="0.38"/><circle cx="196.5" cy="229.4" r="0.58" fill="#cfd3ff" opacity="0.25"/><circle cx="322.8" cy="158.5" r="0.49" fill="#cfd3ff" opacity="0.33"/><circle cx="235.8" cy="217.7" r="0.91" fill="#cfd3ff" opacity="0.32"/><circle cx="375.8" cy="185.1" r="0.93" fill="#cfd3ff" opacity="0.28"/><circle cx="119.0" cy="274.8" r="1.01" fill="#cfd3ff" opacity="0.42"/><circle cx="164.7" cy="199.7" r="0.88" fill="#cfd3ff" opacity="0.20"/><circle cx="261.6" cy="283.5" r="0.99" fill="#cfd3ff" opacity="0.13"/><circle cx="390.4" cy="191.9" r="0.70" fill="#cfd3ff" opacity="0.30"/><circle cx="363.1" cy="274.4" r="0.81" fill="#cfd3ff" opacity="0.42"/><circle cx="145.5" cy="353.5" r="0.80" fill="#cfd3ff" opacity="0.36"/><circle cx="39.0" cy="304.4" r="0.89" fill="#cfd3ff" opacity="0.24"/><circle cx="257.0" cy="23.2" r="1.14" fill="#cfd3ff" opacity="0.37"/><circle cx="161.1" cy="298.0" r="1.12" fill="#cfd3ff" opacity="0.27"/><circle cx="10.1" cy="106.4" r="0.78" fill="#cfd3ff" opacity="0.31"/><circle cx="231.2" cy="229.2" r="0.73" fill="#cfd3ff" opacity="0.26"/><circle cx="305.7" cy="234.4" r="0.78" fill="#cfd3ff" opacity="0.24"/><circle cx="15.5" cy="46.6" r="0.71" fill="#cfd3ff" opacity="0.48"/><circle cx="51.0" cy="371.0" r="0.51" fill="#cfd3ff" opacity="0.22"/><circle cx="182.7" cy="86.3" r="0.76" fill="#cfd3ff" opacity="0.29"/><circle cx="176.0" cy="276.3" r="0.64" fill="#cfd3ff" opacity="0.22"/></g><g><line x1="88.0" y1="120.0" x2="128.0" y2="104.0" stroke="#6b6f9e" stroke-width="1.1" stroke-opacity="0.55" stroke-linecap="round"/><line x1="128.0" y1="104.0" x2="168.0" y2="136.0" stroke="#6b6f9e" stroke-width="1.1" stroke-opacity="0.55" stroke-linecap="round"/><line x1="168.0" y1="136.0" x2="208.0" y2="184.0" stroke="#6b6f9e" stroke-width="1.1" stroke-opacity="0.55" stroke-linecap="round"/><line x1="208.0" y1="184.0" x2="248.0" y2="232.0" stroke="#6b6f9e" stroke-width="1.1" stroke-opacity="0.55" stroke-linecap="round"/><line x1="248.0" y1="232.0" x2="280.0" y2="280.0" stroke="#6b6f9e" stroke-width="1.1" stroke-opacity="0.55" stroke-linecap="round"/><line x1="280.0" y1="280.0" x2="248.0" y2="312.0" stroke="#6b6f9e" stroke-width="1.1" stroke-opacity="0.55" stroke-linecap="round"/><line x1="248.0" y1="312.0" x2="208.0" y2="288.0" stroke="#6b6f9e" stroke-width="1.1" stroke-opacity="0.55" stroke-linecap="round"/><line x1="208.0" y1="288.0" x2="248.0" y2="232.0" stroke="#6b6f9e" stroke-width="1.1" stroke-opacity="0.55" stroke-linecap="round"/></g><circle cx="88.0" cy="120.0" r="10.5" fill="url(#glow2-pisces)"><animate attributeName="opacity" values="0.4;0.85;0.4" dur="4.06s" repeatCount="indefinite" begin="0.25s"/></circle><circle cx="88.0" cy="120.0" r="4.0" fill="#ffffff"><animate attributeName="opacity" values="0.6;1;0.6" dur="4.06s" repeatCount="indefinite" begin="0.25s"/></circle><circle cx="128.0" cy="104.0" r="8.9" fill="url(#glow2-pisces)"><animate attributeName="opacity" values="0.4;0.85;0.4" dur="4.13s" repeatCount="indefinite" begin="1.43s"/></circle><circle cx="128.0" cy="104.0" r="3.4" fill="#ffffff"><animate attributeName="opacity" values="0.6;1;0.6" dur="4.13s" repeatCount="indefinite" begin="1.43s"/></circle><circle cx="168.0" cy="136.0" r="8.9" fill="url(#glow2-pisces)"><animate attributeName="opacity" values="0.4;0.85;0.4" dur="3.82s" repeatCount="indefinite" begin="0.36s"/></circle><circle cx="168.0" cy="136.0" r="3.4" fill="#ffffff"><animate attributeName="opacity" values="0.6;1;0.6" dur="3.82s" repeatCount="indefinite" begin="0.36s"/></circle><circle cx="208.0" cy="184.0" r="16.7" fill="url(#glow-pisces)"><animate attributeName="opacity" values="0.55;1;0.55" dur="4.37s" repeatCount="indefinite" begin="0.54s"/><animate attributeName="r" values="14.9;19.3;14.9" dur="4.37s" repeatCount="indefinite" begin="0.54s"/></circle><g stroke="#f4c95d" stroke-width="1.1" stroke-linecap="round" opacity="0.9"><line x1="194.6" y1="184.0" x2="221.4" y2="184.0"/><line x1="208.0" y1="170.6" x2="208.0" y2="197.4"></line><animateTransform attributeName="transform" type="rotate" from="0 208.0 184.0" to="90 208.0 184.0" dur="9.6s" repeatCount="indefinite"/></g><circle cx="208.0" cy="184.0" r="6.3" fill="#f4c95d" opacity="0.4"/><circle cx="208.0" cy="184.0" r="3.7" fill="#ffffff"><animate attributeName="opacity" values="0.85;1;0.85" dur="4.37s" repeatCount="indefinite" begin="0.54s"/></circle><circle cx="248.0" cy="232.0" r="8.9" fill="url(#glow2-pisces)"><animate attributeName="opacity" values="0.4;0.85;0.4" dur="2.91s" repeatCount="indefinite" begin="0.35s"/></circle><circle cx="248.0" cy="232.0" r="3.4" fill="#ffffff"><animate attributeName="opacity" values="0.6;1;0.6" dur="2.91s" repeatCount="indefinite" begin="0.35s"/></circle><circle cx="280.0" cy="280.0" r="8.9" fill="url(#glow2-pisces)"><animate attributeName="opacity" values="0.4;0.85;0.4" dur="3.61s" repeatCount="indefinite" begin="2.11s"/></circle><circle cx="280.0" cy="280.0" r="3.4" fill="#ffffff"><animate attributeName="opacity" values="0.6;1;0.6" dur="3.61s" repeatCount="indefinite" begin="2.11s"/></circle><circle cx="248.0" cy="312.0" r="9.7" fill="url(#glow2-pisces)"><animate attributeName="opacity" values="0.4;0.85;0.4" dur="3.02s" repeatCount="indefinite" begin="0.89s"/></circle><circle cx="248.0" cy="312.0" r="3.7" fill="#ffffff"><animate attributeName="opacity" values="0.6;1;0.6" dur="3.02s" repeatCount="indefinite" begin="0.89s"/></circle><circle cx="208.0" cy="288.0" r="8.1" fill="url(#glow2-pisces)"><animate attributeName="opacity" values="0.4;0.85;0.4" dur="2.93s" repeatCount="indefinite" begin="1.41s"/></circle><circle cx="208.0" cy="288.0" r="3.1" fill="#ffffff"><animate attributeName="opacity" values="0.6;1;0.6" dur="2.93s" repeatCount="indefinite" begin="1.41s"/></circle><text x="208.0" y="216.7" text-anchor="middle" font-family="Georgia, serif" font-size="13" fill="#f4c95d" opacity="0.94" letter-spacing="0.5"><tspan x="208.0" dy="0">Алриша</tspan></text></svg>