<svg xmlns="http://www.w3.org/2000/svg" viewBox="0 0 400 400" width="400" height="400" role="img" aria-label="Съзвездие Дева"><defs><radialGradient id="sky-virgo" cx="50%" cy="38%" r="75%"><stop offset="0%" stop-color="#141026"/><stop offset="100%" stop-color="#0d0b18"/></radialGradient><radialGradient id="glow-virgo" cx="50%" cy="50%" r="50%"><stop offset="0%" stop-color="#f4c95d" stop-opacity="0.85"/><stop offset="35%" stop-color="#f4c95d" stop-opacity="0.35"/><stop offset="100%" stop-color="#f4c95d" stop-opacity="0"/></radialGradient><radialGradient id="glow2-virgo" cx="50%" cy="50%" r="50%"><stop offset="0%" stop-color="#ffffff" stop-opacity="0.7"/><stop offset="100%" stop-color="#ffffff" stop-opacity="0"/></radialGradient></defs><rect width="400" height="400" fill="url(#sky-virgo)"/><g><circle cx="266.1" cy="294.3" r="1.11" fill="#cfd3ff" opacity="0.27"/><circle cx="294.0" cy="66.0" r="0.71" fill="#cfd3ff" opacity="0.14"/><circle cx="195.9" cy="164.3" r="1.11" fill="#cfd3ff" opacity="0.11"/><circle cx="149.8" cy="178.0" r="1.11" fill="#cfd3ff" opacity="0.44"/><circle cx="44.5" cy="272.0" r="0.81" fill="#cfd3ff" opacity="0.49"/><circle cx="145.2" cy="160.5" r="0.54" fill="#cfd3ff" opacity="0.15"/><circle cx="335.0" cy="182.4" r="0.90" fill="#cfd3ff" opacity="0.36"/><circle cx="237.7" cy="14.3" r="0.99" fill="#cfd3ff" opacity="0.20"/><circle cx="54.9" cy="225.1" r="0.45" fill="#cfd3ff" opacity="0.41"/><circle cx="86.4" cy="89.8" r="1.05" fill="#cfd3ff" opacity="0.23"/><circle cx="63.3" cy="355.4" r="0.40" fill="#cfd3ff" opacity="0.44"/><circle cx="62.1" cy="56.4" r="0.59" fill="#cfd3ff" opacity="0.17"/><circle cx="262.5" cy="16.0" r="0.41" fill="#cfd3ff" opacity="0.42"/><circle cx="98.3" cy="131.6" r="0.53" fill="#cfd3ff" opacity="0.12"/><circle cx="293.8" cy="210.1" r="0.96" fill="#cfd3ff" opacity="0.29"/><circle cx="307.9" cy="205.1" r="0.48" fill="#cfd3ff" opacity="0.30"/><circle cx="372.8" cy="22.8" r="0.99" fill="#cfd3ff" opacity="0.45"/><circle cx="208.3" cy="183.7" r="1.12" fill="#cfd3ff" opacity="0.12"/><circle cx="191.8" cy="161.8" r="0.91" fill="#cfd3ff" opacity="0.30"/><circle cx="359.0" cy="34.5" r="0.46" fill="#cfd3ff" opacity="0.34"/><circle cx="31.5" cy="112.7" r="0.87" fill="#cfd3ff" opacity="0.32"/><circle cx="132.2" cy="391.9" r="0.80" fill="#cfd3ff" opacity="0.28"/><circle cx="240.9" cy="44.5" r="0.93" fill="#cfd3ff" opacity="0.44"/><circle cx="258.6" cy="304.4" r="0.94" fill="#cfd3ff" opacity="0.19"/><circle cx="181.2" cy="94.7" r="0.65" fill="#cfd3ff" opacity="0.28"/><circle cx="167.4" cy="42.9" r="0.72" fill="#cfd3ff" opacity="0.37"/><circle cx="151.2" cy="65.2" r="1.09" fill="#cfd3ff" opacity="0.13"/><circle cx="328.7" cy="42.2" r="0.47" fill="#cfd3ff" opacity="0.40"/><circle cx="321.0" cy="221.9" r="0.84" fill="#cfd3ff" opacity="0.32"/><circle cx="133.9" cy="53.4" r="0.67" fill="#cfd3ff" opacity="0.37"/><circle cx="297.1" cy="342.8" r="0.94" fill="#cfd3ff" opacity="0.49"/><circle cx="239.0" cy="142.4" r="0.83" fill="#cfd3ff" opacity="0.19"/><circle cx="260.8" cy="93.0" r="0.48" fill="#cfd3ff" opacity="0.44"/><circle cx="148.6" cy="301.9" r="0.83" fill="#cfd3ff" opacity="0.42"/><circle cx="333.9" cy="384.1" r="1.01" fill="#cfd3ff" opacity="0.35"/><circle cx="255.4" cy="16.2" r="1.10" fill="#cfd3ff" opacity="0.43"/><circle cx="109.8" cy="76.0" r="0.93" fill="#cfd3ff" opacity="0.22"/><circle cx="137.9" cy="8.4" r="1.05" fill="#cfd3ff" opacity="0.33"/><circle cx="161.5" cy="61.0" r="0.87" fill="#cfd3ff" opacity="0.11"/><circle cx="295.5" cy="89.5" r="0.71" fill="#cfd3ff" opacity="0.24"/><circle cx="149.6" cy="286.0" r="0.98" fill="#cfd3ff" opacity="0.33"/><circle cx="39.0" cy="26.4" r="0.52" fill="#cfd3ff" opacity="0.35"/><circle cx="267.5" cy="111.6" r="0.90" fill="#cfd3ff" opacity="0.29"/><circle cx="177.5" cy="112.0" r="0.97" fill="#cfd3ff" opacity="0.15"/><circle cx="172.8" cy="115.9" r="0.91" fill="#cfd3ff" opacity="0.29"/><circle cx="264.8" cy="23.6" r="0.70" fill="#cfd3ff" opacity="0.34"/></g><g><line x1="160.0" y1="288.0" x2="176.0" y2="216.0" stroke="#6b6f9e" stroke-width="1.1" stroke-opacity="0.55" stroke-linecap="round"/><line x1="176.0" y1="216.0" x2="208.0" y2="168.0" stroke="#6b6f9e" stroke-width="1.1" stroke-opacity="0.55" stroke-linecap="round"/><line x1="208.0" y1="168.0" x2="160.0" y2="144.0" stroke="#6b6f9e" stroke-width="1.1" stroke-opacity="0.55" stroke-linecap="round"/><line x1="160.0" y1="144.0" x2="120.0" y2="120.0" stroke="#6b6f9e" stroke-width="1.1" stroke-opacity="0.55" stroke-linecap="round"/><line x1="208.0" y1="168.0" x2="256.0" y2="160.0" stroke="#6b6f9e" stroke-width="1.1" stroke-opacity="0.55" stroke-linecap="round"/><line x1="176.0" y1="216.0" x2="248.0" y2="224.0" stroke="#6b6f9e" stroke-width="1.1" stroke-opacity="0.55" stroke-linecap="round"/></g><circle cx="160.0" cy="288.0" r="29.3" fill="url(#glow-virgo)"><animate attributeName="opacity" values="0.55;1;0.55" dur="2.61s" repeatCount="indefinite" begin="0.66s"/><animate attributeName="r" values="26.0;33.9;26.0" dur="2.61s" repeatCount="indefinite" begin="0.66s"/></circle><g stroke="#f4c95d" stroke-width="1.1" stroke-linecap="round" opacity="0.9"><line x1="136.6" y1="288.0" x2="183.4" y2="288.0"/><line x1="160.0" y1="264.6" x2="160.0" y2="311.4"></line><animateTransform attributeName="transform" type="rotate" from="0 160.0 288.0" to="90 160.0 288.0" dur="5.7s" repeatCount="indefinite"/></g><circle cx="160.0" cy="288.0" r="11.1" fill="#f4c95d" opacity="0.4"/><circle cx="160.0" cy="288.0" r="6.5" fill="#ffffff"><animate attributeName="opacity" values="0.85;1;0.85" dur="2.61s" repeatCount="indefinite" begin="0.66s"/></circle><circle cx="176.0" cy="216.0" r="10.5" fill="url(#glow2-virgo)"><animate attributeName="opacity" values="0.4;0.85;0.4" dur="2.98s" repeatCount="indefinite" begin="0.3s"/></circle><circle cx="176.0" cy="216.0" r="4.0" fill="#ffffff"><animate attributeName="opacity" values="0.6;1;0.6" dur="2.98s" repeatCount="indefinite" begin="0.3s"/></circle><circle cx="208.0" cy="168.0" r="11.3" fill="url(#glow2-virgo)"><animate attributeName="opacity" values="0.4;0.85;0.4" dur="3.06s" repeatCount="indefinite" begin="0.72s"/></circle><circle cx="208.0" cy="168.0" r="4.3" fill="#ffffff"><animate attributeName="opacity" values="0.6;1;0.6" dur="3.06s" repeatCount="indefinite" begin="0.72s"/></circle><circle cx="160.0" cy="144.0" r="8.9" fill="url(#glow2-virgo)"><animate attributeName="opacity" values="0.4;0.85;0.4" dur="2.61s" repeatCount="indefinite" begin="1.64s"/></circle><circle cx="160.0" cy="144.0" r="3.4" fill="#ffffff"><animate attributeName="opacity" values="0.6;1;0.6" dur="2.61s" repeatCount="indefinite" begin="1.64s"/></circle><circle cx="256.0" cy="160.0" r="8.9" fill="url(#glow2-virgo)"><animate attributeName="opacity" values="0.4;0.85;0.4" dur="2.92s" repeatCount="indefinite" begin="0.84s"/></circle><circle cx="256.0" cy="160.0" r="3.4" fill="#ffffff"><animate attributeName="opacity" values="0.6;1;0.6" dur="2.92s" repeatCount="indefinite" begin="0.84s"/></circle><circle cx="248.0" cy="224.0" r="8.1" fill="url(#glow2-virgo)"><animate attributeName="opacity" values="0.4;0.85;0.4" dur="3.87s" repeatCount="indefinite" begin="1.1s"/></circle><circle cx="248.0" cy="224.0" r="3.1" fill="#ffffff"><animate attributeName="opacity" values="0.6;1;0.6" dur="3.87s" repeatCount="indefinite" begin="1.1s"/></circle><circle cx="120.0" cy="120.0" r="8.1" fill="url(#glow2-virgo)"><animate attributeName="opacity" values="0.4;0.85;0.4" dur="4.1s" repeatCount="indefinite" begin="1.77s"/></circle><circle cx="120.0" cy="120.0" r="3.1" fill="#ffffff"><animate attributeName="opacity" values="0.6;1;0.6" dur="4.1s" repeatCount="indefinite" begin="1.77s"/></circle><text x="160.0" y="248.7" text-anchor="middle" font-family="Georgia, serif" font-size="13" fill="#f4c95d" opacity="0.94" letter-spacing="0.5"><tspan x="160.0" dy="0">Спика</tspan></text></svg>